<?xml version="1.0" encoding="utf-8"?>
<!-- Generator: Adobe Illustrator 21.0.0, SVG Export Plug-In . SVG Version: 6.00 Build 0)  -->
<svg version="1.1" id="Layer_1" xmlns="http://www.w3.org/2000/svg" xmlns:xlink="http://www.w3.org/1999/xlink" x="0px" y="0px"
	 viewBox="0 0 292.2 292.2" style="enable-background:new 0 0 292.2 292.2;" xml:space="preserve">
<g>
	
		<image style="overflow:visible;" width="564" height="423" id="MljFCC_1_" xlink:href="1FDFFE5015D2AB12.jpg"  transform="matrix(1 0 0 1 -1366.4039 1132.7825)">
	</image>
</g>
<g>
	
		<image style="overflow:visible;" width="564" height="564" id="XRfTy9_1_" xlink:href="1FDFFE5015D2AB16.jpg"  transform="matrix(1 0 0 1 -94.4701 888.8401)">
	</image>
</g>
<path d="M-571.8,1037.5h-1.2c-6.9,0-9.3-2.2-23.9-36.9l-26.8-64c-0.1-0.3-0.7-0.4-1.5-0.4h-1.5c-0.6,0-0.9,0.1-1,0.4l-28.5,71.1
	c-2.4,6.3-6,14.6-9.7,20.9c-3.1,5.9-6.6,8.8-10.6,8.8h-0.6c-0.6,0-0.9,0.1-0.9,0.6c0,0.4,0.3,0.7,0.9,0.7c3.7,0,10.3-0.3,12.2-0.3
	c2.5,0,14.2,0.3,16.8,0.3c1.6,0,1.8-0.4,1.8-0.9c0-0.4-0.3-0.7-1-0.7c-0.6,0-2.9,0.4-4.1,0.4c-5.5,0-8.3-2.4-8.3-7.2
	c0-6.5,2.9-15.6,5.3-22l23.4-59.3l22,51.4v0.1l0.7,1.5c14.2,32.7,12.7,35.2,6.5,35.2h-3.1c-1.2,0-0.7,1.3,0.4,1.3
	c4.3,0,15.5-0.4,17.8-0.4c2.2,0,10.6,0.4,14.9,0.4c0.6,0,0.9-0.3,0.9-0.7C-570.8,1037.6-571.1,1037.5-571.8,1037.5z"/>
<g>
	<path d="M-602.6,910.1c24.1,12.7,34.9,43.2,21.1,69.4c-13.7,26.1-45.7,34.2-69.8,21.5c-24.1-12.7-34.5-43-20.7-69.1
		C-658.1,905.2-626.7,897.4-602.6,910.1z M-651.2,999.5c21,11,44.5,0.3,58.3-25.9c13.8-26.3,11.1-50.9-9.8-61.9
		c-21-11-44,0.1-57.8,26.3C-674.4,964.3-672.1,988.5-651.2,999.5z"/>
</g>
<g>
	<path d="M192.5,188c-2.4,2.2-4.8,4.3-7.4,6.1c-0.1,0.1-0.3,0.2-0.4,0.3l12.3,20.8h11.6L192.5,188z"/>
	<path d="M207.8,138.8c0-34-27.7-61.7-61.7-61.7s-61.7,27.7-61.7,61.7c0,13.4,4.3,25.8,11.6,35.9l5.5-9.3
		c-4.7-7.8-7.4-16.9-7.4-26.7c0-28.7,23.3-52,52-52s52,23.3,52,52c0,13.6-5.3,26-13.8,35.2c-2.3,2.5-4.8,4.8-7.5,6.8c0,0,0,0,0,0
		c-0.6,0.4-1.2,0.9-1.8,1.3c-2.1,1.4-4.4,2.7-6.7,3.8c-6.7,3.2-14.2,4.9-22.1,4.9c-11.4,0-22-3.7-30.6-10l2-3.4l1.1-1.9l27.5-46.4
		l27.5,46.4c2.2-1.6,4.3-3.5,6.2-5.6c0.4-0.4,0.8-0.9,1.2-1.4l-34.9-58.9l-36.1,61l-9.2,15.5l-17.2,29.1h11.6l13.4-22.7l2-3.3
		c10.1,7.1,22.3,11.3,35.6,11.3c9.7,0,18.9-2.3,27-6.2c2.3-1.1,4.6-2.4,6.7-3.8c0.6-0.4,1.2-0.8,1.8-1.2c0,0,0,0,0,0
		c2.7-1.9,5.3-4.1,7.7-6.5C200.7,171.4,207.8,155.9,207.8,138.8z"/>
</g>
</svg>
